<?xml version="1.0" encoding="utf-8"?>
<!-- Generator: Adobe Illustrator 24.1.3, SVG Export Plug-In . SVG Version: 6.00 Build 0)  -->
<svg version="1.1" id="Calque_1" xmlns="http://www.w3.org/2000/svg" xmlns:xlink="http://www.w3.org/1999/xlink" x="0px" y="0px"
	 viewBox="0 0 299.2 238.7" style="enable-background:new 0 0 299.2 238.7;" xml:space="preserve">
<style type="text/css">
	.st0{fill:#084685;}
</style>
<path class="st0" d="M188.9,195.5c-17.5,0-31.6-14.1-31.6-31.6s14.1-31.6,31.6-31.6s31.6,14.1,31.6,31.6
	C220.5,181.3,206.3,195.5,188.9,195.5z M188.9,141.2c-12.5,0-22.6,10.1-22.6,22.6c0,12.5,10.1,22.6,22.6,22.6
	c12.5,0,22.6-10.1,22.6-22.6C211.5,151.3,201.4,141.2,188.9,141.2z"/>
<path class="st0" d="M110.3,156.5c-17.5,0-31.6-14.1-31.6-31.6c0-17.5,14.1-31.6,31.6-31.6s31.6,14.1,31.6,31.6
	C141.9,142.3,127.7,156.5,110.3,156.5z M110.3,102.2c-12.5,0-22.6,10.1-22.6,22.6c0,12.5,10.1,22.6,22.6,22.6s22.6-10.1,22.6-22.6
	C132.9,112.3,122.8,102.2,110.3,102.2C110.3,102.2,110.3,102.2,110.3,102.2z"/>
<path class="st0" d="M31.6,238.7C14.1,238.7,0,224.6,0,207.1s14.1-31.6,31.6-31.6s31.6,14.1,31.6,31.6
	C63.2,224.5,49,238.7,31.6,238.7z M31.6,184.4c-12.5,0-22.7,10.1-22.7,22.6s10.1,22.7,22.6,22.7c12.5,0,22.7-10.1,22.7-22.6
	C54.2,194.6,44.1,184.4,31.6,184.4C31.6,184.4,31.6,184.4,31.6,184.4z"/>
<path class="st0" d="M267.6,63.2c-17.5,0-31.6-14.1-31.6-31.6S250.1,0,267.6,0c17.5,0,31.6,14.1,31.6,31.6
	C299.2,49,285,63.2,267.6,63.2z M267.6,8.9C255.1,8.9,245,19,245,31.5s10.1,22.6,22.6,22.6c12.5,0,22.6-10.1,22.6-22.6
	C290.2,19,280.1,8.9,267.6,8.9C267.6,8.9,267.6,8.9,267.6,8.9z"/>
<rect x="41.2" y="161.5" transform="matrix(0.6914 -0.7225 0.7225 0.6914 -98.0241 102.5013)" class="st0" width="59.5" height="9"/>
<rect x="143.5" y="128.2" transform="matrix(0.4442 -0.8959 0.8959 0.4442 -46.3646 212.4212)" class="st0" width="9" height="30.8"/>
<rect x="178.4" y="93.2" transform="matrix(0.511 -0.8596 0.8596 0.511 27.6314 243.9574)" class="st0" width="99.7" height="9"/>
</svg>
