<?xml version="1.0" encoding="utf-8"?>
<!-- Generator: Adobe Illustrator 24.1.3, SVG Export Plug-In . SVG Version: 6.00 Build 0)  -->
<svg version="1.1" id="Calque_1" xmlns="http://www.w3.org/2000/svg" xmlns:xlink="http://www.w3.org/1999/xlink" x="0px" y="0px"
	 viewBox="0 0 127.8 127.9" style="enable-background:new 0 0 127.8 127.9;" xml:space="preserve">
<style type="text/css">
	.st0{fill:#084685;}
</style>
<g>
	<path class="st0" d="M127.8,96c-0.9-15.8-14-28-29.8-28S69.1,80.2,68.1,96H60c-1.2-16.5-15.5-29-32-27.9C11.5,69.2-1,83.5,0.1,100
		c1.1,16.5,15.4,29,31.9,27.9c15-1,26.9-12.9,27.9-27.9H68c1.1,16.5,15.4,29,31.9,27.9C116.4,126.8,128.9,112.5,127.8,96z
		 M45.2,119.1c-9.1,6.5-21.4,6.5-30.4,0c0-8.5,6.8-15.3,15.2-15.3S45.2,110.6,45.2,119.1C45.2,119,45.2,119,45.2,119.1z M22.5,92.3
		c0-4.2,3.4-7.5,7.5-7.5s7.5,3.4,7.5,7.5c0,4.2-3.4,7.5-7.5,7.5C25.8,99.8,22.5,96.4,22.5,92.3z M48.9,115.8
		c-1.1-6.6-5.5-12.1-11.7-14.6c5-4,5.8-11.2,1.8-16.2c-4-4.9-11.3-5.7-16.2-1.7c-4.9,4-5.8,11.3-1.8,16.2c0.5,0.6,1.1,1.2,1.7,1.7
		c-6.1,2.5-10.6,8-11.7,14.6C1.1,105.4,1.6,88.9,12.1,79c10.5-9.9,26.9-9.4,36.8,1.1C58.4,90.1,58.4,105.8,48.9,115.8z M113.2,119.1
		c-9.1,6.5-21.4,6.5-30.4,0c0-8.5,6.8-15.3,15.2-15.3C106.4,103.8,113.2,110.6,113.2,119.1C113.2,119,113.2,119,113.2,119.1z
		 M90.5,92.3c0-4.2,3.4-7.5,7.5-7.5s7.5,3.4,7.5,7.5c0,4.1-3.4,7.5-7.5,7.5C93.8,99.8,90.5,96.4,90.5,92.3z M116.9,115.8
		c-1.1-6.6-5.5-12.1-11.7-14.6c4.9-4,5.7-11.3,1.7-16.2s-11.3-5.7-16.2-1.7c-4.9,4-5.7,11.3-1.7,16.2c0.5,0.6,1.1,1.2,1.7,1.7
		c-6.1,2.5-10.6,8-11.7,14.6c-9.9-10.4-9.4-26.9,1.1-36.8c10.5-9.9,26.9-9.4,36.8,1.1C126.4,90.1,126.4,105.8,116.9,115.8z"/>
	<path class="st0" d="M54.9,63.2L62.3,76c0.4,0.6,1,1,1.7,1s1.4-0.4,1.7-1l7.5-12.9C90.3,58,100,40,94.9,23
		c-1.5-5.1-4.3-9.8-8.1-13.6C74.2-3.1,53.8-3.1,41.2,9.5c-6,6-9.4,14.2-9.4,22.7C31.8,46.5,41.2,59.1,54.9,63.2z M36.7,25.1
		c1.2-4.9,3.8-9.3,7.3-12.8c11-11,28.9-11,39.9,0s11,28.9,0,39.9c-3.5,3.5-7.8,6-12.5,7.3c-0.5,0.1-0.9,0.5-1.2,0.9L64,71l-6-10.5
		c-0.3-0.5-0.7-0.8-1.2-0.9C41.7,55.6,32.7,40.2,36.7,25.1z"/>
	<path class="st0" d="M55.6,26.5c1.1,0,2-0.9,2-2c0-3.5,2.9-6.4,6.4-6.4s6.4,2.9,6.4,6.4c0,2.4-1.3,3.9-3.2,5.9
		C64.9,32.9,62,36,62,41.8c0,1.1,0.9,2,2,2s2-0.9,2-2c0-4.2,2-6.4,4.1-8.7c2.1-2.3,4.3-4.6,4.3-8.6C74.4,18.7,69.7,14,64,14
		s-10.4,4.7-10.4,10.4C53.6,25.6,54.5,26.5,55.6,26.5z"/>
	<circle class="st0" cx="64" cy="49.7" r="2.2"/>
</g>
</svg>
