<svg xmlns="http://www.w3.org/2000/svg" viewBox="0 0 611.12 73.95"><defs><style>.cls-1{fill:#28a6df;}.cls-2{isolation:isolate;}.cls-3{fill:#084685;}</style></defs><g id="Layer_2" data-name="Layer 2"><g id="Calque_1" data-name="Calque 1"><rect class="cls-1" x="0.61" y="61.95" width="601.11" height="5.19"/><circle class="cls-1" cx="601.72" cy="64.55" r="9.4"/><g class="cls-2"><g class="cls-2"><path class="cls-1" d="M0,43V.72H8.3l17.28,28.2V.72H33.5V43H25l-17-27.54V43Z"/></g><g class="cls-2"><path class="cls-1" d="M60.16,43V25.18L44.69.72h10l9.94,16.71L74.36.72h9.82L68.65,25.24V43Z"/></g><g class="cls-2"><path class="cls-1" d="M118.44,27.43l8.26,2.62q-1.89,6.91-6.32,10.27a18.09,18.09,0,0,1-11.22,3.35,18.17,18.17,0,0,1-13.83-5.74q-5.42-5.76-5.41-15.72,0-10.55,5.44-16.38T109.68,0q7.74,0,12.59,4.58a16.69,16.69,0,0,1,4.32,7.78l-8.44,2a8.73,8.73,0,0,0-8.9-7.09,9.6,9.6,0,0,0-7.62,3.37Q98.71,14,98.7,21.58q0,8,2.88,11.41a9.37,9.37,0,0,0,7.49,3.39,8.54,8.54,0,0,0,5.85-2.16A12.54,12.54,0,0,0,118.44,27.43Z"/></g><path class="cls-3" d="M152,43V2.15h18.09a24.2,24.2,0,0,1,8.3,1.1,9.07,9.07,0,0,1,4.53,3.88,11.62,11.62,0,0,1,1.7,6.15,10.26,10.26,0,0,1-2.81,7.32q-2.81,3-8.68,3.79a13.92,13.92,0,0,1,3.25,2,28.08,28.08,0,0,1,4.48,5.43L188,43h-6.79l-5.4-8.49c-1.58-2.44-2.88-4.32-3.9-5.62a11.89,11.89,0,0,0-2.74-2.72A8,8,0,0,0,166.67,25a16.07,16.07,0,0,0-3-.2H157.4V43Zm5.4-22.79H169a17.43,17.43,0,0,0,5.79-.77A6.11,6.11,0,0,0,178,16.94a6.64,6.64,0,0,0,1.08-3.66A6.06,6.06,0,0,0,177,8.53q-2.1-1.87-6.63-1.87H157.4Z"/><path class="cls-3" d="M193.19,43V2.15H222.7V7H198.59V19.46h22.58v4.79H198.59V38.14h25V43Z"/><path class="cls-3" d="M229.26,29.84l5.1-.44a11.24,11.24,0,0,0,1.68,5,9.19,9.19,0,0,0,4.11,3.18,15.64,15.64,0,0,0,6.26,1.21,15,15,0,0,0,5.45-.92,7.51,7.51,0,0,0,3.52-2.52,5.85,5.85,0,0,0,1.16-3.49,5.35,5.35,0,0,0-1.11-3.36,8.26,8.26,0,0,0-3.68-2.4,70.21,70.21,0,0,0-7.26-2,37.49,37.49,0,0,1-7.88-2.55,11,11,0,0,1-4.35-3.8,9.29,9.29,0,0,1-1.44-5.08,10.41,10.41,0,0,1,1.76-5.78,10.84,10.84,0,0,1,5.12-4.07,19.35,19.35,0,0,1,7.48-1.39,20.37,20.37,0,0,1,8,1.46,11.5,11.5,0,0,1,5.33,4.3,12.33,12.33,0,0,1,2,6.43l-5.18.39a8.39,8.39,0,0,0-2.82-5.85q-2.42-2-7.11-2-4.91,0-7.14,1.8A5.37,5.37,0,0,0,236,12.34,4.68,4.68,0,0,0,237.61,16c1,.94,3.76,1.91,8.14,2.9a53.94,53.94,0,0,1,9,2.61,12.41,12.41,0,0,1,5.26,4.16,10.14,10.14,0,0,1,1.69,5.8,11.13,11.13,0,0,1-1.86,6.14,12.28,12.28,0,0,1-5.36,4.48,18.62,18.62,0,0,1-7.86,1.6A23.57,23.57,0,0,1,237.38,42a13,13,0,0,1-5.88-4.86A13.83,13.83,0,0,1,229.26,29.84Z"/><path class="cls-3" d="M269.12,43V2.15h15.39a37.18,37.18,0,0,1,6.21.39,12.3,12.3,0,0,1,5,1.91A9.86,9.86,0,0,1,299,8.39,12.4,12.4,0,0,1,300.26,14,12.53,12.53,0,0,1,297,22.76q-3.31,3.6-12,3.61H274.52V43Zm5.4-21.4h10.55c3.49,0,6-.65,7.43-1.95a7,7,0,0,0,2.2-5.48,7.3,7.3,0,0,0-1.3-4.38A6,6,0,0,0,290,7.33,23.1,23.1,0,0,0,285,7H274.52Z"/><path class="cls-3" d="M305.5,23.08q0-10.15,5.45-15.91A18.55,18.55,0,0,1,325,1.43a19.53,19.53,0,0,1,10.19,2.7,17.69,17.69,0,0,1,6.92,7.53,24.54,24.54,0,0,1,2.38,11A24,24,0,0,1,342,33.71a17,17,0,0,1-7.1,7.42,20.25,20.25,0,0,1-9.9,2.52,19.34,19.34,0,0,1-10.3-2.78,17.93,17.93,0,0,1-6.88-7.6A23.16,23.16,0,0,1,305.5,23.08Zm5.56.08q0,7.38,4,11.62a13.82,13.82,0,0,0,20,0Q339,30.47,339,22.58a21,21,0,0,0-1.68-8.7,13.07,13.07,0,0,0-4.93-5.76,13.39,13.39,0,0,0-7.28-2A13.8,13.8,0,0,0,315.2,10Q311.06,14,311.06,23.16Z"/><path class="cls-3" d="M351.42,43V2.15H357l21.43,32v-32h5.17V43H378L356.6,10.89V43Z"/><path class="cls-3" d="M390.8,29.84l5.09-.44a11.25,11.25,0,0,0,1.69,5,9.22,9.22,0,0,0,4.1,3.18A15.72,15.72,0,0,0,408,38.81a15.07,15.07,0,0,0,5.45-.92,7.51,7.51,0,0,0,3.52-2.52,5.85,5.85,0,0,0,1.16-3.49A5.3,5.3,0,0,0,417,28.52a8.16,8.16,0,0,0-3.67-2.4,71.81,71.81,0,0,0-7.26-2,37.49,37.49,0,0,1-7.88-2.55,11.09,11.09,0,0,1-4.36-3.8,9.36,9.36,0,0,1-1.43-5.08,10.39,10.39,0,0,1,1.75-5.78,10.89,10.89,0,0,1,5.12-4.07,19.41,19.41,0,0,1,7.49-1.39,20.32,20.32,0,0,1,8,1.46,11.45,11.45,0,0,1,5.33,4.3,12.43,12.43,0,0,1,2,6.43l-5.18.39a8.36,8.36,0,0,0-2.83-5.85q-2.4-2-7.11-2-4.89,0-7.14,1.8a5.4,5.4,0,0,0-2.24,4.33A4.65,4.65,0,0,0,399.15,16q1.56,1.41,8.14,2.9a53.44,53.44,0,0,1,9,2.61,12.28,12.28,0,0,1,5.26,4.16,10.14,10.14,0,0,1,1.7,5.8,11.13,11.13,0,0,1-1.86,6.14,12.34,12.34,0,0,1-5.36,4.48,18.62,18.62,0,0,1-7.86,1.6A23.62,23.62,0,0,1,398.91,42,13.07,13.07,0,0,1,393,37.18,13.83,13.83,0,0,1,390.8,29.84Z"/><path class="cls-3" d="M430.77,43V2.15h29.5V7h-24.1V19.46h22.57v4.79H436.17V38.14h25.05V43Z"/><path class="cls-3" d="M484.29,43V2.15h5.4v36h20.09V43Z"/><path class="cls-3" d="M511.73,43,527.4,2.15h5.82L549.92,43h-6.15L539,30.6H522L517.46,43ZM523.5,26.2h13.84l-4.26-11.3q-2-5.14-2.9-8.46a51.84,51.84,0,0,1-2.2,7.79Z"/><path class="cls-3" d="M554,43V2.15h15.31a18.91,18.91,0,0,1,7.5,1.24,9.72,9.72,0,0,1,4.42,3.81,10,10,0,0,1,1.6,5.39,9.21,9.21,0,0,1-1.42,4.92,10,10,0,0,1-4.28,3.73A10.71,10.71,0,0,1,582.83,25a9.88,9.88,0,0,1,2,6.18,11.83,11.83,0,0,1-1.21,5.32,10.35,10.35,0,0,1-3,3.8,12.46,12.46,0,0,1-4.47,2,26.93,26.93,0,0,1-6.58.68Zm5.4-23.65h8.82a19.4,19.4,0,0,0,5.15-.48,5.64,5.64,0,0,0,3.1-2,5.83,5.83,0,0,0,1-3.56,6.56,6.56,0,0,0-1-3.58,4.9,4.9,0,0,0-2.78-2.11A23.32,23.32,0,0,0,567.56,7h-8.15Zm0,18.84h10.16a23.13,23.13,0,0,0,3.67-.2,8.82,8.82,0,0,0,3.12-1.11,6,6,0,0,0,2.06-2.27,7.06,7.06,0,0,0,.8-3.43,6.83,6.83,0,0,0-1.16-4,6.21,6.21,0,0,0-3.25-2.37,20.25,20.25,0,0,0-6-.68h-9.43Z"/></g></g></g></svg>