<?xml version="1.0" encoding="utf-8"?>
<!-- Generator: Adobe Illustrator 24.1.3, SVG Export Plug-In . SVG Version: 6.00 Build 0)  -->
<svg version="1.1" id="Calque_1" xmlns="http://www.w3.org/2000/svg" xmlns:xlink="http://www.w3.org/1999/xlink" x="0px" y="0px"
	 viewBox="0 0 128 128" style="enable-background:new 0 0 128 128;" xml:space="preserve">
<style type="text/css">
	.st0{fill:#084685;}
</style>
<path class="st0" d="M127.8,62c-1-4.5-5-7.8-9.6-7.8c-4.6,0-8.6,3.3-9.6,7.8H89.9c-0.4-5.5-2.6-10.7-6.2-14.9L97,33.8
	c3.9,2.5,9,2,12.3-1.3c3.8-3.8,3.8-10,0-13.8c-3.8-3.8-10-3.8-13.8,0c-3.3,3.3-3.8,8.4-1.3,12.2L80.9,44.3
	c-4.2-3.6-9.4-5.8-14.9-6.2V19.4c5.3-1.1,8.7-6.3,7.6-11.6C72.5,2.5,67.3-0.9,62,0.2c-5.3,1.1-8.7,6.3-7.6,11.6
	c0.8,3.8,3.8,6.8,7.6,7.6v18.7c-5.5,0.4-10.7,2.6-14.9,6.2L33.8,31c3-4.5,1.7-10.6-2.8-13.5s-10.6-1.7-13.5,2.8
	c-2.5,3.9-2,9,1.3,12.3c3.3,3.3,8.4,3.8,12.3,1.3l13.3,13.2c-3.6,4.2-5.8,9.4-6.2,14.9H19.4c-1.1-5.3-6.3-8.7-11.6-7.6
	C2.5,55.5-0.9,60.7,0.2,66s6.3,8.7,11.6,7.6c3.8-0.8,6.8-3.8,7.6-7.6h18.7c0.4,5.5,2.6,10.7,6.2,14.9L31,94.2
	c-4.5-3-10.6-1.7-13.5,2.8s-1.7,10.6,2.8,13.5c4.5,3,10.6,1.7,13.5-2.8c2.1-3.2,2.1-7.4,0-10.7L47,83.7c4.2,3.6,9.4,5.8,14.9,6.2
	v18.7c-5.3,1.1-8.7,6.3-7.6,11.6c1.1,5.3,6.3,8.7,11.6,7.6c5.3-1.1,8.7-6.3,7.6-11.6c-0.8-3.8-3.8-6.8-7.6-7.6V89.9
	c5.5-0.4,10.7-2.6,14.9-6.2L94.2,97c-3,4.5-1.7,10.6,2.8,13.5c4.5,3,10.6,1.7,13.5-2.8c3-4.5,1.7-10.6-2.8-13.5
	c-3.2-2.1-7.4-2.1-10.7,0L83.7,80.9c3.6-4.2,5.8-9.4,6.2-14.9h18.7c1.1,5.3,6.3,8.7,11.6,7.6C125.5,72.5,128.9,67.3,127.8,62z
	 M98.2,21.6c2.3-2.3,5.9-2.3,8.2,0c2.3,2.3,2.3,5.9,0,8.2c-2.3,2.3-5.9,2.3-8.2,0c-1.1-1.1-1.7-2.6-1.7-4.1
	C96.5,24.1,97.1,22.7,98.2,21.6z M29.8,29.8c-2.3,2.3-5.9,2.3-8.2,0c-2.3-2.3-2.3-5.9,0-8.2c2.3-2.3,5.9-2.3,8.2,0
	C32,23.8,32,27.5,29.8,29.8z M9.8,69.8C6.6,69.8,4,67.2,4,64s2.6-5.8,5.8-5.8s5.8,2.6,5.8,5.8S13,69.8,9.8,69.8z M29.8,106.4
	c-2.3,2.3-5.9,2.3-8.2,0c-2.3-2.3-2.3-5.9,0-8.2c2.3-2.3,5.9-2.3,8.2,0c1.1,1.1,1.7,2.6,1.7,4.1S30.9,105.3,29.8,106.4z M98.2,98.2
	c2.3-2.3,5.9-2.3,8.2,0c2.3,2.3,2.3,5.9,0,8.2c-2.3,2.3-5.9,2.3-8.2,0c-1.1-1.1-1.7-2.6-1.7-4.1C96.6,100.8,97.2,99.3,98.2,98.2z
	 M58.2,9.8C58.2,6.6,60.8,4,64,4c3.2,0,5.8,2.6,5.8,5.8s-2.6,5.8-5.8,5.8C60.8,15.6,58.2,13,58.2,9.8z M69.8,118.2
	c0,3.2-2.6,5.8-5.8,5.8c-3.2,0-5.8-2.6-5.8-5.8s2.6-5.8,5.8-5.8C67.2,112.4,69.8,115,69.8,118.2z M64,86c-4.7,0-9.3-1.5-13.1-4.3
	c0.5-7.2,6.8-12.7,14-12.2c6.6,0.4,11.8,5.7,12.2,12.2C73.3,84.5,68.7,86,64,86z M57.6,59c0-3.5,2.9-6.4,6.4-6.3
	c3.5,0,6.4,2.9,6.3,6.4c0,3.5-2.9,6.3-6.4,6.3C60.5,65.4,57.6,62.6,57.6,59z M80.6,78.4c-1.3-5.2-4.9-9.4-9.8-11.5
	c4.3-3.8,4.8-10.3,1-14.7c-3.8-4.4-10.3-4.8-14.7-1c-4.4,3.8-4.8,10.3-1,14.7c0.3,0.4,0.7,0.7,1,1c-4.9,2.1-8.5,6.4-9.8,11.6
	c-8-9.2-7-23.1,2.2-31s23.1-7,31,2.2C87.8,57.8,87.8,70.1,80.6,78.4z M118.2,69.8c-3.2,0-5.8-2.6-5.8-5.8s2.6-5.8,5.8-5.8
	s5.8,2.6,5.8,5.8S121.4,69.8,118.2,69.8z"/>
</svg>
