<?xml version="1.0" encoding="utf-8"?>
<!-- Generator: Adobe Illustrator 24.1.3, SVG Export Plug-In . SVG Version: 6.00 Build 0)  -->
<svg version="1.1" id="Calque_1" xmlns="http://www.w3.org/2000/svg" xmlns:xlink="http://www.w3.org/1999/xlink" x="0px" y="0px"
	 viewBox="0 0 76 54" style="enable-background:new 0 0 76 54;" xml:space="preserve">
<style type="text/css">
	.st0{fill:#084685;}
</style>
<path class="st0" d="M35.8,14H76v-4H35.8c-1.1-6.5-7.4-10.9-13.9-9.7C17,1.1,13.1,5,12.2,10H0v4h12.2c1.1,6.5,7.4,10.9,13.9,9.7
	C31,22.9,34.9,19,35.8,14z M16,12c0-4.4,3.6-8,8-8s8,3.6,8,8s-3.6,8-8,8S16,16.4,16,12z M63.8,44H76v-4H63.8
	c-1.1-6.5-7.4-10.9-13.9-9.7c-5,0.9-8.9,4.8-9.7,9.7H0v4h40.2c1.1,6.5,7.4,10.9,13.9,9.7C59,52.9,62.9,49,63.8,44z M44,42
	c0-4.4,3.6-8,8-8s8,3.6,8,8s-3.6,8-8,8S44,46.4,44,42z"/>
</svg>
