<?xml version="1.0" encoding="utf-8"?>
<!-- Generator: Adobe Illustrator 24.1.3, SVG Export Plug-In . SVG Version: 6.00 Build 0)  -->
<svg version="1.1" id="Calque_1" xmlns="http://www.w3.org/2000/svg" xmlns:xlink="http://www.w3.org/1999/xlink" x="0px" y="0px"
	 viewBox="0 0 128 113.4" style="enable-background:new 0 0 128 113.4;" xml:space="preserve">
<style type="text/css">
	.st0{fill:#084685;}
</style>
<path class="st0" d="M116,44.7c-5.9,0-10.8,4.2-11.8,10H83c-1.1,0-2,0.9-2,2s0.9,2,2,2h21.2c1.1,6.5,7.3,10.9,13.8,9.8
	c6.5-1.1,10.9-7.3,9.8-13.8C126.9,48.9,121.9,44.7,116,44.7z M116,64.7c-4.4,0-8-3.6-8-8s3.6-8,8-8s8,3.6,8,8S120.4,64.7,116,64.7z"
	/>
<path class="st0" d="M73,41.4c0.3,0.2,0.6,0.3,1,0.3c0.7,0,1.4-0.4,1.7-1l9.9-17.4c1.3,0.5,2.7,0.7,4.1,0.7
	c6.7,0.1,12.3-5.3,12.4-12s-5.3-12.3-12-12.4c-6.7-0.1-12.3,5.3-12.4,12c-0.1,3.7,1.6,7.2,4.4,9.6l-9.9,17.5
	C71.7,39.6,72.1,40.8,73,41.4z M82.9,8c1.1-1.8,2.8-3.2,4.8-3.7C88.4,4,89.1,3.9,89.8,4c4.4,0,8,3.6,8,8s-3.6,8-8,8s-8-3.6-8-8
	C81.8,10.5,82.2,9.2,82.9,8z"/>
<path class="st0" d="M85.1,90.1l-9.3-17.3c-0.5-1-1.7-1.3-2.7-0.8c-1,0.5-1.3,1.7-0.8,2.7l0,0l0,0L81.6,92
	c-5.2,4.1-6.2,11.6-2.1,16.8c4.1,5.2,11.6,6.2,16.8,2.1c5.2-4.1,6.2-11.6,2.1-16.8C95.3,90,89.9,88.4,85.1,90.1L85.1,90.1z
	 M92.9,108.3c-3.8,2.2-8.7,0.9-10.9-2.9c-2.2-3.8-0.9-8.7,2.9-10.9s8.7-0.9,10.9,2.9c0.7,1.2,1.1,2.6,1.1,4
	C96.9,104.3,95.4,106.9,92.9,108.3z"/>
<path class="st0" d="M77,56.8C77,49.3,71.4,43,64,42V31.7c0-1.1-0.9-2-2-2c-0.5,0-1,0.2-1.3,0.5C52,37.9,45,40.7,34,40.7H16.5
	c-9.2,0-16.5,7-16.5,16c0,8.8,7.2,16,16,16v10c0,2,0,8,5,8c4.1,0,7-3.4,7-8v-10h6c11.6,0,18.5,4.2,26.7,11.5
	c0.8,0.7,2.1,0.7,2.8-0.2c0.3-0.4,0.5-0.8,0.5-1.3v-11C71.4,70.7,77,64.3,77,56.8z M73,56.9c0,5.3-3.8,9.8-9,10.8V46
	C69.2,47.1,72.9,51.6,73,56.9z M4,56.7c0-6.7,5.1-11.8,12-12v24C9.1,68.4,4,63.3,4,56.7z M24,82.7c0,1.8-0.8,4-3,4c-0.7,0-1-1.3-1-4
	v-10h4V82.7z M60,78.3c-7.4-6-14.9-9.6-26-9.6H20v-24h14c10.6,0,18-2.4,26-8.7V78.3z"/>
</svg>
