<?xml version="1.0" encoding="utf-8"?>
<!-- Generator: Adobe Illustrator 24.1.3, SVG Export Plug-In . SVG Version: 6.00 Build 0)  -->
<svg version="1.1" id="Calque_1" xmlns="http://www.w3.org/2000/svg" xmlns:xlink="http://www.w3.org/1999/xlink" x="0px" y="0px"
	 viewBox="0 0 128.1 128" style="enable-background:new 0 0 128.1 128;" xml:space="preserve">
<style type="text/css">
	.st0{fill:#084685;}
</style>
<path class="st0" d="M111.2,95.3c6.8-4.6,8.5-13.8,3.9-20.6c-4.6-6.8-13.8-8.5-20.6-3.9S86,84.6,90.6,91.4c1,1.5,2.4,2.9,3.9,3.9
	c-2.7,0.9-5.2,2.3-7.4,4.1c-3.8-3.3-8.3-5.8-13.2-7.2c9.8-5.5,13.4-17.9,7.9-27.7s-17.9-13.4-27.7-7.9s-13.4,17.9-7.9,27.7
	c1.8,3.3,4.6,6.1,7.9,7.9c-4.9,1.4-9.4,3.9-13.2,7.2c-2.2-1.8-4.7-3.2-7.4-4.1c6.8-4.6,8.5-13.8,3.9-20.6s-13.8-8.5-20.6-3.9
	s-8.5,13.8-3.9,20.6c1.1,1.6,2.4,2.9,3.9,3.9C6.8,98.9,0,108.4,0,119.1c0,1.1,0.9,2,2,2s2-0.9,2-2c0-11.7,9.5-21.2,21.2-21.2
	c4.7,0,9.2,1.5,12.9,4.4c-5.9,6.5-9.2,14.9-9.2,23.7c0,1.1,0.9,2,2,2s2-0.9,2-2c0-17.2,14-31.2,31.2-31.2s31.2,14,31.2,31.2
	c0,1.1,0.9,2,2,2s2-0.9,2-2c0-8.8-3.2-17.2-9.2-23.7c9.3-7.1,22.6-5.3,29.7,4c2.8,3.7,4.3,8.2,4.3,12.8c0,1.1,0.9,2,2,2s2-0.9,2-2
	C128,108.4,121.2,98.9,111.2,95.3z M14.3,83.1c0-6,4.8-10.8,10.8-10.8s10.8,4.8,10.8,10.8s-4.8,10.8-10.8,10.8
	C19.2,93.9,14.3,89.1,14.3,83.1z M47.6,74.5c0-9,7.3-16.4,16.4-16.4s16.4,7.3,16.4,16.4S73,90.8,64,90.8S47.7,83.5,47.6,74.5z
	 M92,83.1c0-6,4.8-10.8,10.8-10.8s10.8,4.8,10.8,10.8s-4.8,10.8-10.8,10.8l0,0C96.8,93.9,92,89.1,92,83.1z"/>
<path class="st0" d="M14,50c0.4,0,0.8,0,1.2-0.1l3.2,13.3c0.2,0.9,1,1.5,1.9,1.5c0.2,0,0.3,0,0.5,0c1.1-0.3,1.7-1.3,1.5-2.4L19.1,49
	c6.8-2.7,10.4-10.2,8.2-17.2l26.8-12.9c0.7,0.9,1.5,1.8,2.3,2.5L33.3,63.7c-0.5,1-0.2,2.2,0.8,2.7s2.2,0.2,2.7-0.8L60,23.3
	c0.6,0.2,1.3,0.4,1.9,0.5V48c0,1.1,0.9,2,2,2s2-0.9,2-2V23.8c0.7-0.1,1.3-0.3,1.9-0.5L91,65.6c0.5,1,1.7,1.3,2.7,0.8
	s1.3-1.7,0.8-2.7L71.4,21.4c0.9-0.7,1.7-1.5,2.3-2.5l26.8,12.9c-2.2,7,1.4,14.5,8.2,17.2l-3.2,13.3c-0.3,1.1,0.4,2.2,1.5,2.4l0,0
	c0.2,0,0.3,0.1,0.5,0.1c0.9,0,1.7-0.6,1.9-1.5l3.2-13.3c0.4,0,0.8,0.1,1.2,0.1c7.7,0,14-6.3,14-14s-6.3-14-14-14
	c-4.7,0-9,2.3-11.6,6.2l-26.7-13c0.3-1.1,0.5-2.2,0.5-3.3c0-6.6-5.4-12-12-12S52,5.4,52,12c0,1.1,0.2,2.2,0.5,3.3L25.6,28.2
	c-4.3-6.4-13-8.1-19.4-3.8s-8.1,13-3.8,19.4C5,47.7,9.3,50,14,50z M114,26c5.5,0,10,4.5,10,10s-4.5,10-10,10s-10-4.5-10-10
	S108.5,26,114,26z M64,4c4.4,0,8,3.6,8,8s-3.6,8-8,8s-8-3.6-8-8S59.6,4,64,4z M14,26c5.5,0,10,4.5,10,10s-4.5,10-10,10S4,41.5,4,36
	S8.5,26,14,26z"/>
</svg>
